<?xml version="1.0" standalone="no"?>
<!DOCTYPE svg PUBLIC "-//W3C//DTD SVG 20010904//EN"
 "http://www.w3.org/TR/2001/REC-SVG-20010904/DTD/svg10.dtd">
<svg version="1.0" xmlns="http://www.w3.org/2000/svg"
 width="260.000000pt" height="260.000000pt" viewBox="0 0 260.000000 260.000000"
 preserveAspectRatio="xMidYMid meet">
<metadata>
Created by potrace 1.11, written by Peter Selinger 2001-2013
</metadata>
<g transform="translate(0.000000,260.000000) scale(0.100000,-0.100000)"
fill="#000000" stroke="none">
<path d="M1159 2596 c-2 -2 -29 -7 -59 -10 -284 -34 -588 -200 -793 -435 -94
-108 -191 -282 -242 -436 -84 -254 -85 -579 -1 -828 120 -356 363 -625 702
-777 57 -26 176 -67 216 -74 7 -1 40 -9 73 -16 92 -22 397 -19 505 4 264 56
481 174 665 360 167 169 269 347 334 584 30 109 36 170 35 347 -1 281 -70 506
-228 735 -66 96 -220 251 -316 317 -137 93 -346 183 -485 208 -22 4 -49 10
-60 12 -26 6 -340 15 -346 9z m261 -371 c56 -6 158 -29 195 -44 137 -56 226
-112 316 -201 115 -114 196 -260 239 -435 28 -111 34 -310 13 -430 -51 -292
-221 -531 -466 -652 -138 -68 -258 -95 -422 -94 -55 1 -109 3 -120 5 -11 2
-38 6 -60 10 -211 36 -421 174 -548 360 -214 314 -214 797 0 1112 109 160 305
304 463 339 8 2 35 8 60 15 99 24 194 29 330 15z"/>
</g>
</svg>
